
<svg xmlns="http://www.w3.org/2000/svg" width="282" height="40" viewBox="0 0 282 40" fill="none"><path d="M18.6668 37.3211H0V0H18.6668C28.9724 0 37.3335 8.36079 37.3335 18.6659C37.3335 28.9711 28.9724 37.3319 18.6668 37.3319V37.3211Z" fill="white"></path><path d="M114.226 37.3211H95.5591V0H114.226C124.531 0 132.893 8.36079 132.893 18.6659C132.893 28.9711 124.531 37.3319 114.226 37.3319V37.3211Z" fill="white"></path><path d="M61.9633 0H43.2965V37.3211H61.9633V0Z" fill="white"></path><path d="M88.0945 0H69.4277V37.3211H88.0945V0Z" fill="white"></path><path d="M147.152 13.4053L144.354 17.8558L139.85 14.5936L143.209 10.5536L143.058 10.0891L137.981 8.79287L139.688 3.51067L144.657 5.58466L145.024 5.21739L144.657 -0.0108032H150.198L149.831 5.21739L150.198 5.58466L155.114 3.56468L156.766 8.84688L151.689 10.0891L151.538 10.5536L154.897 14.5936L150.393 17.9098L147.649 13.4053H147.13H147.152Z" fill="white"></path><path d="M178.458 2.32244C178.037 1.5771 177.442 1.00459 176.665 0.604916C175.887 0.20524 174.969 0.0108032 173.888 0.0108032H170.053V10.0459H173.888C174.969 10.0459 175.898 9.85147 176.665 9.4518C177.442 9.05212 178.037 8.47961 178.458 7.73427C178.879 6.98893 179.084 6.08156 179.084 5.03376C179.084 3.98596 178.879 3.08939 178.458 2.33324V2.32244ZM176.384 6.87011C176.189 7.30219 175.898 7.60465 175.487 7.76668C175.077 7.92871 174.537 8.01512 173.856 8.01512H172.3V2.01998H173.856C174.537 2.01998 175.077 2.1064 175.487 2.26843C175.898 2.43046 176.2 2.73292 176.384 3.165C176.578 3.59708 176.665 4.2128 176.665 5.01215C176.665 5.8115 176.567 6.42722 176.384 6.8593V6.87011Z" fill="white"></path><path d="M182.347 1.64191H180.143L180.121 0H182.357V1.64191H182.347ZM182.39 10.0351H180.143V2.49527H182.39V10.0243V10.0351Z" fill="white"></path><path d="M188.98 2.49528V3.58629H188.904C188.709 3.16501 188.407 2.85175 187.997 2.64651C187.597 2.44127 187.111 2.34406 186.571 2.34406C185.501 2.34406 184.691 2.65731 184.129 3.28383C183.567 3.91035 183.287 4.75291 183.287 5.80071C183.287 6.84851 183.557 7.68027 184.108 8.29599C184.648 8.9117 185.447 9.22496 186.484 9.22496C187.057 9.22496 187.532 9.11694 187.91 8.9009C188.299 8.68486 188.569 8.42561 188.742 8.13396H188.828V9.30058C188.828 9.68945 188.796 9.99191 188.72 10.1971C188.645 10.4024 188.504 10.5428 188.31 10.6184C188.115 10.694 187.813 10.7373 187.413 10.7373C186.992 10.7373 186.679 10.7048 186.452 10.6508C186.225 10.5968 186.084 10.4996 186.009 10.3484C185.933 10.2079 185.901 10.0027 185.901 9.75426H183.665C183.665 10.3916 183.805 10.9317 184.097 11.3746C184.388 11.8175 184.799 12.1415 185.35 12.3684C185.901 12.5952 186.56 12.7032 187.338 12.7032C188.115 12.7032 188.828 12.5736 189.379 12.3252C189.93 12.0767 190.351 11.6878 190.632 11.1693C190.913 10.64 191.064 9.98111 191.064 9.17095V2.49528H188.98ZM188.645 6.8053C188.515 6.99974 188.331 7.14017 188.083 7.22658C187.834 7.313 187.532 7.35621 187.165 7.35621C186.851 7.35621 186.592 7.3238 186.376 7.26979C186.16 7.20498 185.987 7.11856 185.868 6.98894C185.739 6.85931 185.652 6.69728 185.598 6.49204C185.544 6.29761 185.512 6.05996 185.512 5.80071C185.512 5.45505 185.566 5.16339 185.663 4.93655C185.76 4.7097 185.933 4.53687 186.171 4.41805C186.409 4.29923 186.743 4.24522 187.176 4.24522C187.532 4.24522 187.834 4.28842 188.083 4.37484C188.331 4.46126 188.515 4.60168 188.634 4.79612C188.763 4.99056 188.818 5.24981 188.818 5.56307V6.01675C188.818 6.34082 188.753 6.58926 188.634 6.7837L188.645 6.8053Z" fill="white"></path><path d="M194.554 1.64191H192.35L192.317 0H194.554V1.64191ZM194.597 10.0351H192.35V2.49527H194.597V10.0243V10.0351Z" fill="white"></path><path d="M200.754 4.35322V2.49526H198.626V0.745331H196.855L196.725 1.27463C196.552 1.98757 195.915 2.49526 195.18 2.49526V4.35322H196.379V7.56143C196.379 8.44719 196.617 9.08452 197.103 9.47339C197.578 9.86226 198.313 10.0567 199.285 10.0567C199.555 10.0567 199.825 10.0459 200.085 10.0135C200.344 9.98109 200.571 9.94868 200.754 9.90547V8.03672H199.825C199.35 8.03672 199.026 7.99351 198.864 7.91789C198.702 7.84228 198.626 7.63704 198.626 7.30218V4.35322H200.754Z" fill="white"></path><path d="M208.23 3.83474C207.97 3.35945 207.592 2.99218 207.095 2.73293C206.599 2.47368 205.972 2.35486 205.227 2.35486C204.481 2.35486 203.898 2.47368 203.379 2.72213C202.85 2.97058 202.45 3.31624 202.148 3.75913C201.856 4.21281 201.705 4.73131 201.705 5.33623V5.49826H203.844V5.33623C203.844 4.95815 203.941 4.6881 204.146 4.54768C204.341 4.39645 204.676 4.32083 205.119 4.32083C205.561 4.32083 205.907 4.38564 206.134 4.51527C206.361 4.64489 206.48 4.92575 206.48 5.36863V5.61708L203.909 5.99515C203.39 6.07076 202.947 6.21119 202.602 6.39483C202.245 6.57846 201.975 6.81611 201.791 7.10776C201.608 7.39942 201.51 7.73428 201.51 8.12316C201.51 8.80368 201.737 9.31138 202.191 9.66785C202.645 10.0135 203.206 10.1971 203.876 10.1971C204.341 10.1971 204.74 10.1323 205.075 10.0135C205.399 9.89469 205.68 9.74346 205.907 9.55983C206.134 9.37619 206.307 9.20336 206.436 9.01973H206.523V10.0351H208.608V5.57387C208.608 4.89334 208.478 4.32083 208.23 3.83474ZM206.22 7.93952C206.037 8.14476 205.81 8.28518 205.529 8.3608C205.248 8.43641 204.946 8.46882 204.632 8.46882C204.308 8.46882 204.06 8.42561 203.898 8.35C203.736 8.27438 203.66 8.13396 203.66 7.92872C203.66 7.76669 203.714 7.64786 203.822 7.57225C203.93 7.49664 204.103 7.43182 204.33 7.38862L206.49 7.05375C206.49 7.44263 206.404 7.73428 206.22 7.93952Z" fill="white"></path><path d="M212.173 10.0351H209.937V0H212.173V10.0351Z" fill="white"></path><path d="M218.654 10.0351H216.407V0H218.654V10.0351Z" fill="white"></path><path d="M227.296 3.79153C227.102 3.34865 226.799 2.99218 226.389 2.73293C225.978 2.47368 225.449 2.34406 224.79 2.34406C224.347 2.34406 223.969 2.40887 223.634 2.52769C223.299 2.65731 223.029 2.81935 222.802 3.04619C222.575 3.26223 222.392 3.52148 222.251 3.81313H222.165V2.49528H220.08V10.0243H222.316V5.7575C222.316 5.37943 222.37 5.07697 222.478 4.87174C222.586 4.65569 222.759 4.50447 222.975 4.41805C223.202 4.33163 223.494 4.28842 223.85 4.28842C224.423 4.28842 224.812 4.39645 225.017 4.61249C225.222 4.82853 225.33 5.1958 225.33 5.7143V10.0459H227.577V5.27141C227.577 4.74211 227.48 4.25602 227.285 3.81313L227.296 3.79153Z" fill="white"></path><path d="M231.012 1.64191H228.809L228.776 0H231.012V1.64191ZM231.055 10.0351H228.809V2.49527H231.055V10.0243V10.0351Z" fill="white"></path><path d="M237.213 4.35322V2.49526H235.085V0.745331H233.313L233.183 1.27463C233.011 1.98757 232.373 2.49526 231.639 2.49526V4.35322H232.838V7.56143C232.838 8.44719 233.075 9.08452 233.562 9.47339C234.037 9.86226 234.771 10.0567 235.744 10.0567C236.014 10.0567 236.284 10.0459 236.543 10.0135C236.802 9.98109 237.029 9.94868 237.213 9.90547V8.03672H236.284C235.808 8.03672 235.484 7.99351 235.322 7.91789C235.16 7.84228 235.085 7.63704 235.085 7.30218V4.35322H237.213Z" fill="white"></path><path d="M240.324 1.64191H238.12L238.099 0H240.335V1.64191H240.324ZM240.367 10.0351H238.12V2.49527H240.367V10.0243V10.0351Z" fill="white"></path><path d="M248.059 3.83474C247.799 3.35945 247.421 2.99218 246.924 2.73293C246.427 2.47368 245.801 2.35486 245.055 2.35486C244.31 2.35486 243.727 2.47368 243.208 2.72213C242.679 2.97058 242.279 3.31624 241.977 3.75913C241.685 4.21281 241.534 4.73131 241.534 5.33623V5.49826H243.673V5.33623C243.673 4.95815 243.77 4.6881 243.975 4.54768C244.17 4.39645 244.504 4.32083 244.947 4.32083C245.39 4.32083 245.736 4.38564 245.963 4.51527C246.19 4.64489 246.309 4.92575 246.309 5.36863V5.61708L243.738 5.99515C243.219 6.07076 242.787 6.21119 242.43 6.39483C242.074 6.57846 241.804 6.81611 241.62 7.10776C241.437 7.39942 241.339 7.73428 241.339 8.12316C241.339 8.80368 241.566 9.31138 242.02 9.66785C242.474 10.0135 243.035 10.1971 243.705 10.1971C244.17 10.1971 244.569 10.1323 244.904 10.0135C245.228 9.89469 245.509 9.74346 245.736 9.55983C245.963 9.37619 246.136 9.20336 246.265 9.01973H246.352V10.0351H248.437V5.57387C248.437 4.89334 248.307 4.32083 248.059 3.83474ZM246.049 7.93952C245.866 8.14476 245.639 8.28518 245.358 8.3608C245.077 8.43641 244.775 8.46882 244.461 8.46882C244.137 8.46882 243.889 8.42561 243.727 8.35C243.565 8.27438 243.489 8.13396 243.489 7.92872C243.489 7.76669 243.543 7.64786 243.651 7.57225C243.759 7.49664 243.932 7.43182 244.159 7.38862L246.319 7.05375C246.319 7.44263 246.233 7.73428 246.049 7.93952Z" fill="white"></path><path d="M254.659 4.35322V2.49526H252.531V0.745331H250.759L250.629 1.27463C250.457 1.98757 249.819 2.49526 249.085 2.49526V4.35322H250.284V7.56143C250.284 8.44719 250.521 9.08452 251.008 9.47339C251.483 9.86226 252.217 10.0567 253.19 10.0567C253.46 10.0567 253.73 10.0459 253.989 10.0135C254.248 9.98109 254.475 9.94868 254.659 9.90547V8.03672H253.73C253.254 8.03672 252.93 7.99351 252.768 7.91789C252.606 7.84228 252.531 7.63704 252.531 7.30218V4.35322H254.659Z" fill="white"></path><path d="M257.77 1.64191H255.566L255.534 0H257.77V1.64191ZM257.813 10.0351H255.566V2.49527H257.813V10.0243V10.0351Z" fill="white"></path><path d="M263.971 10.0351H261.108L258.191 2.50607H260.687L262.48 7.8855H262.642L264.435 2.50607H266.887L263.949 10.0351H263.971Z" fill="white"></path><path d="M274.276 6.276C274.298 6.08157 274.309 5.87633 274.309 5.66029C274.309 5.00136 274.168 4.42885 273.887 3.93196C273.607 3.43506 273.196 3.04619 272.656 2.77614C272.127 2.49528 271.478 2.35486 270.722 2.35486C269.966 2.35486 269.275 2.51689 268.702 2.83015C268.13 3.15421 267.698 3.6079 267.395 4.19121C267.093 4.78532 266.941 5.47665 266.941 6.28681C266.941 7.09696 267.071 7.76669 267.341 8.35C267.611 8.93331 268.022 9.38699 268.583 9.70025C269.145 10.0243 269.847 10.1755 270.711 10.1755C271.435 10.1755 272.051 10.0783 272.58 9.87309C273.11 9.67865 273.52 9.38699 273.812 9.00892C274.103 8.63085 274.244 8.16636 274.244 7.62626V7.47503H272.029V7.56145C272.029 7.78829 271.932 7.96112 271.727 8.05834C271.522 8.16636 271.198 8.22037 270.744 8.22037C270.29 8.22037 269.945 8.15556 269.696 8.03674C269.448 7.91792 269.275 7.72348 269.178 7.46423C269.102 7.26979 269.059 7.03215 269.048 6.74049H274.222C274.244 6.61087 274.266 6.44884 274.287 6.2436L274.276 6.276ZM270.647 4.19121C271.003 4.19121 271.306 4.24522 271.532 4.35324C271.759 4.46126 271.932 4.61249 272.04 4.80692C272.127 4.96895 272.159 5.17419 272.148 5.41184H269.048C269.091 5.08778 269.199 4.81773 269.361 4.62329C269.588 4.34244 270.02 4.20201 270.636 4.20201L270.647 4.19121Z" fill="white"></path><path d="M172.3 23.7537H170.053V13.7186H172.3V23.7537ZM177.583 15.7494H170.68V13.7294H177.583V15.7494ZM177.367 20.0486H170.691V18.0394H177.367V20.0486Z" fill="white"></path><path d="M193.214 17.3913C193.074 16.9916 192.847 16.6676 192.534 16.4299C192.22 16.1923 191.799 16.0735 191.27 16.0735C190.74 16.0735 190.308 16.2031 189.963 16.4731C189.617 16.7324 189.347 17.0564 189.163 17.4345H189.077V16.2247H186.992V23.7537H189.228V19.0332C189.228 18.6227 189.314 18.3419 189.487 18.1907C189.66 18.0394 189.909 17.9638 190.254 17.9638C190.611 17.9638 190.859 18.0394 191 18.1907C191.14 18.3419 191.205 18.6227 191.205 19.0332V19.4329H193.441V18.7416C193.441 18.2339 193.376 17.7802 193.236 17.3697L193.214 17.3913Z" fill="white"></path><path d="M199.48 23.7537H197.233V13.7186H199.48V23.7537Z" fill="white"></path><path d="M208.111 17.5209C207.916 17.078 207.614 16.7216 207.203 16.4623C206.793 16.2031 206.264 16.0735 205.605 16.0735C205.162 16.0735 204.784 16.1383 204.449 16.2571C204.114 16.3867 203.844 16.5487 203.617 16.7756C203.39 16.9916 203.207 17.2509 203.066 17.5425H202.98V16.2247H200.895V23.7537H203.131V19.4869C203.131 19.1088 203.185 18.8064 203.293 18.6011C203.401 18.3851 203.574 18.2339 203.79 18.1474C204.006 18.061 204.308 18.0178 204.665 18.0178C205.237 18.0178 205.626 18.1258 205.832 18.3419C206.037 18.5579 206.145 18.9252 206.145 19.4437V23.7753H208.392V19.0008C208.392 18.4715 208.295 17.9854 208.1 17.5425L208.111 17.5209Z" fill="white"></path><path d="M216.926 17.5209C216.731 17.078 216.429 16.7216 216.018 16.4623C215.608 16.2031 215.078 16.0735 214.419 16.0735C213.976 16.0735 213.598 16.1383 213.263 16.2571C212.929 16.3867 212.659 16.5487 212.432 16.7756C212.205 16.9916 212.021 17.2509 211.881 17.5425H211.794V16.2247H209.709V23.7537H211.946V19.4869C211.946 19.1088 212 18.8064 212.108 18.6011C212.216 18.3851 212.388 18.2339 212.605 18.1474C212.821 18.061 213.123 18.0178 213.48 18.0178C214.052 18.0178 214.441 18.1258 214.646 18.3419C214.851 18.5579 214.96 18.9252 214.96 19.4437V23.7753H217.206V19.0008C217.206 18.4715 217.109 17.9854 216.915 17.5425L216.926 17.5209Z" fill="white"></path><path d="M231.747 23.7537H228.884L225.967 16.2247H228.463L230.256 21.6041H230.418L232.211 16.2247H234.663L231.725 23.7537H231.747Z" fill="white"></path><path d="M241.426 17.5641C241.166 17.0888 240.788 16.7216 240.291 16.4623C239.795 16.2031 239.168 16.0843 238.423 16.0843C237.677 16.0843 237.094 16.2031 236.575 16.4515C236.046 16.7 235.646 17.0456 235.344 17.4885C235.052 17.9422 234.901 18.4607 234.901 19.0656V19.2277H237.04V19.0656C237.04 18.6876 237.137 18.4175 237.342 18.2771C237.537 18.1258 237.872 18.0502 238.315 18.0502C238.757 18.0502 239.103 18.115 239.33 18.2447C239.557 18.3743 239.676 18.6551 239.676 19.098V19.3465L237.105 19.7246C236.586 19.8002 236.154 19.9406 235.798 20.1242C235.441 20.3079 235.171 20.5455 234.987 20.8372C234.804 21.1288 234.707 21.4637 234.707 21.8526C234.707 22.5331 234.933 23.0408 235.387 23.3972C235.841 23.7429 236.403 23.9265 237.072 23.9265C237.537 23.9265 237.937 23.8617 238.271 23.7429C238.595 23.6241 238.876 23.4729 239.103 23.2892C239.33 23.1056 239.503 22.9328 239.632 22.7491H239.719V23.7645H241.804V19.3033C241.804 18.6227 241.674 18.0502 241.426 17.5641ZM239.416 21.6689C239.233 21.8742 239.006 22.0146 238.725 22.0902C238.444 22.1658 238.142 22.1982 237.828 22.1982C237.504 22.1982 237.256 22.155 237.094 22.0794C236.932 22.0038 236.856 21.8634 236.856 21.6581C236.856 21.4961 236.91 21.3773 237.018 21.3016C237.126 21.226 237.299 21.1612 237.526 21.118L239.687 20.7832C239.687 21.172 239.6 21.4637 239.416 21.6689Z" fill="white"></path><path d="M248.026 18.0826V16.2247H245.898V14.4748H244.126L243.997 15.0041C243.824 15.717 243.186 16.2247 242.452 16.2247V18.0826H243.651V21.2909C243.651 22.1766 243.889 22.8139 244.375 23.2028C244.85 23.5917 245.585 23.7861 246.557 23.7861C246.827 23.7861 247.097 23.7753 247.356 23.7429C247.616 23.7105 247.842 23.6781 248.026 23.6349V21.7661H247.097C246.622 21.7661 246.298 21.7229 246.136 21.6473C245.974 21.5717 245.898 21.3665 245.898 21.0316V18.0826H248.026Z" fill="white"></path><path d="M251.137 15.3713H248.934L248.901 13.7294H251.137V15.3713ZM251.18 23.7537H248.934V16.2247H251.18V23.7537Z" fill="white"></path><path d="M267.989 17.5209C267.795 17.078 267.492 16.7216 267.082 16.4623C266.671 16.2031 266.142 16.0735 265.483 16.0735C265.04 16.0735 264.662 16.1383 264.327 16.2571C263.992 16.3867 263.722 16.5487 263.495 16.7756C263.269 16.9916 263.085 17.2509 262.945 17.5425H262.858V16.2247H260.773V23.7537H263.009V19.4869C263.009 19.1088 263.063 18.8064 263.171 18.6011C263.279 18.3851 263.452 18.2339 263.668 18.1474C263.884 18.061 264.187 18.0178 264.543 18.0178C265.116 18.0178 265.505 18.1258 265.71 18.3419C265.915 18.5579 266.023 18.9252 266.023 19.4437V23.7753H268.27V19.0008C268.27 18.4715 268.173 17.9854 267.978 17.5425L267.989 17.5209Z" fill="white"></path><path d="M282 17.683H280.477V16.3219H278.263V17.683H276.091C275.756 17.683 275.486 17.6182 275.303 17.4777C275.108 17.3373 275.022 17.0672 275.022 16.6676C275.022 16.2679 275.119 15.9762 275.303 15.8358C275.497 15.6954 275.756 15.6198 276.091 15.6198H277.798V13.5674H276.286C275.583 13.5674 274.968 13.6538 274.438 13.8266C273.909 13.9995 273.499 14.2803 273.207 14.6692C272.915 15.0581 272.775 15.5766 272.775 16.2247C272.775 16.808 272.915 17.3049 273.207 17.737C273.499 18.1691 273.931 18.4175 274.525 18.4823V18.5579C274.125 18.6119 273.758 18.7308 273.434 18.9252C273.099 19.1196 272.84 19.3897 272.645 19.7246C272.451 20.0594 272.354 20.4915 272.354 20.9992C272.354 22.0038 272.688 22.7383 273.369 23.2028C274.039 23.6673 275.033 23.8941 276.34 23.8941C277.344 23.8941 278.154 23.7537 278.759 23.4621C279.364 23.1812 279.796 22.7707 280.067 22.2522C280.337 21.7229 280.466 21.1072 280.466 20.3727V19.5085H281.989V17.6614L282 17.683ZM278.252 20.3835C278.252 20.7724 278.209 21.0748 278.111 21.28C278.014 21.4853 277.841 21.6365 277.582 21.7229C277.323 21.8094 276.945 21.8526 276.458 21.8526C276.005 21.8526 275.648 21.8202 275.367 21.7661C275.097 21.7121 274.903 21.6041 274.795 21.4313C274.687 21.2692 274.633 21.0316 274.633 20.7183C274.633 20.2106 274.762 19.8758 275.011 19.7354C275.27 19.5841 275.605 19.5085 276.037 19.5085H278.252V20.3727V20.3835Z" fill="white"></path><path d="M178.458 29.7705C178.037 29.0251 177.442 28.4526 176.665 28.0529C175.887 27.6533 174.969 27.4588 173.888 27.4588H170.053V37.4939H173.888C174.969 37.4939 175.898 37.2995 176.665 36.8998C177.442 36.5001 178.037 35.9276 178.458 35.1823C178.879 34.437 179.084 33.5296 179.084 32.4818C179.084 31.434 178.879 30.5374 178.458 29.7813V29.7705ZM176.384 34.3181C176.189 34.7502 175.898 35.0527 175.487 35.2147C175.077 35.3767 174.537 35.4632 173.856 35.4632H172.3V29.4788H173.856C174.537 29.4788 175.077 29.5652 175.487 29.7273C175.898 29.8893 176.2 30.1918 176.384 30.6238C176.578 31.0559 176.665 31.6716 176.665 32.471C176.665 33.2703 176.567 33.8861 176.384 34.3181Z" fill="white"></path><path d="M187.262 33.724C187.284 33.5296 187.294 33.3243 187.294 33.1083C187.294 32.4494 187.154 31.8768 186.862 31.38C186.571 30.8831 186.171 30.4942 185.631 30.2241C185.101 29.9433 184.453 29.8029 183.697 29.8029C182.941 29.8029 182.25 29.9649 181.677 30.2781C181.105 30.6022 180.672 31.0559 180.37 31.6392C180.067 32.2333 179.916 32.9246 179.916 33.7348C179.916 34.545 180.046 35.2147 180.316 35.798C180.586 36.3813 180.997 36.835 181.558 37.1483C182.12 37.4723 182.822 37.6235 183.686 37.6235C184.41 37.6235 185.026 37.5263 185.555 37.3211C186.085 37.1266 186.495 36.835 186.787 36.4569C187.078 36.0788 187.219 35.6144 187.219 35.0743V34.923H185.004V35.0094C185.004 35.2363 184.907 35.4091 184.702 35.5063C184.497 35.6144 184.172 35.6684 183.719 35.6684C183.265 35.6684 182.919 35.6036 182.671 35.4847C182.422 35.3659 182.25 35.1715 182.152 34.9122C182.077 34.7178 182.034 34.4801 182.023 34.1885H187.197C187.219 34.0589 187.24 33.8968 187.262 33.6916V33.724ZM183.632 31.6392C183.989 31.6392 184.291 31.6932 184.518 31.8012C184.745 31.9093 184.918 32.0605 185.026 32.2549C185.112 32.417 185.145 32.6222 185.134 32.8598H182.044C182.088 32.5358 182.196 32.2657 182.358 32.0713C182.584 31.7904 183.017 31.65 183.632 31.65V31.6392Z" fill="white"></path><path d="M193.203 37.4831H190.341L187.424 29.9541H189.93L191.723 35.3335H191.885L193.678 29.9541H196.131L193.192 37.4831H193.203Z" fill="white"></path><path d="M203.509 33.724C203.531 33.5296 203.541 33.3243 203.541 33.1083C203.541 32.4494 203.401 31.8768 203.12 31.38C202.839 30.8831 202.429 30.4942 201.889 30.2241C201.359 29.9433 200.711 29.8029 199.955 29.8029C199.199 29.8029 198.507 29.9649 197.935 30.2781C197.362 30.6022 196.93 31.0559 196.628 31.6392C196.325 32.2333 196.174 32.9246 196.174 33.7348C196.174 34.545 196.314 35.2147 196.574 35.798C196.844 36.3813 197.254 36.835 197.816 37.1483C198.378 37.4723 199.08 37.6235 199.944 37.6235C200.668 37.6235 201.284 37.5263 201.813 37.3211C202.342 37.1266 202.753 36.835 203.044 36.4569C203.336 36.0788 203.477 35.6144 203.477 35.0743V34.923H201.262V35.0094C201.262 35.2363 201.165 35.4091 200.96 35.5063C200.754 35.6144 200.43 35.6684 199.977 35.6684C199.523 35.6684 199.177 35.6036 198.929 35.4847C198.68 35.3659 198.507 35.1715 198.41 34.9122C198.335 34.7178 198.291 34.4801 198.281 34.1885H203.455C203.477 34.0589 203.498 33.8968 203.52 33.6916L203.509 33.724ZM199.879 31.6392C200.236 31.6392 200.538 31.6932 200.765 31.8012C200.992 31.9093 201.165 32.0605 201.273 32.2549C201.359 32.417 201.392 32.6222 201.381 32.8598H198.281C198.324 32.5358 198.432 32.2657 198.594 32.0713C198.821 31.7904 199.253 31.65 199.869 31.65L199.879 31.6392Z" fill="white"></path><path d="M206.879 37.4831H204.643V27.448H206.879V37.4831Z" fill="white"></path><path d="M223.44 30.8615C222.899 30.1485 222.089 29.8029 221.02 29.8029C220.458 29.8029 219.972 29.9109 219.562 30.1269C219.151 30.343 218.838 30.6562 218.622 31.0667H218.546V29.9541H216.461V40H218.708V36.5001H218.784C218.957 36.8242 219.227 37.0942 219.605 37.3103C219.983 37.5263 220.469 37.6451 221.063 37.6451C222.089 37.6451 222.878 37.2887 223.429 36.5757C223.98 35.8628 224.25 34.9122 224.25 33.7348C224.25 32.5574 223.98 31.5852 223.429 30.8723L223.44 30.8615ZM221.938 34.6206C221.884 34.8798 221.798 35.0851 221.679 35.2471C221.549 35.4091 221.387 35.5279 221.171 35.6036C220.955 35.6792 220.685 35.7224 220.372 35.7224C220.015 35.7224 219.713 35.6792 219.464 35.5928C219.216 35.5063 219.032 35.3551 218.913 35.1499C218.784 34.9446 218.73 34.6746 218.73 34.3289V33.1191C218.73 32.7842 218.795 32.5142 218.913 32.3089C219.043 32.1145 219.227 31.9633 219.464 31.866C219.713 31.7688 220.015 31.7256 220.372 31.7256C220.696 31.7256 220.955 31.7688 221.171 31.8444C221.387 31.9201 221.56 32.0497 221.679 32.2117C221.808 32.3737 221.895 32.5898 221.938 32.8382C221.992 33.0975 222.014 33.3891 222.014 33.724C222.014 34.0589 221.992 34.3613 221.938 34.6206Z" fill="white"></path><path d="M237.569 31.2503C237.375 30.8074 237.083 30.451 236.683 30.1917C236.284 29.9325 235.754 29.8029 235.106 29.8029C234.653 29.8029 234.253 29.8677 233.929 30.0081C233.594 30.1377 233.324 30.3214 233.097 30.5374C232.87 30.7534 232.686 31.0019 232.546 31.2827H232.47C232.47 31.2827 232.47 31.2719 232.47 31.2611C232.287 30.8182 231.995 30.4618 231.606 30.2025C231.217 29.9433 230.688 29.8137 230.04 29.8137C229.608 29.8137 229.24 29.8785 228.916 29.9973C228.592 30.1269 228.322 30.2889 228.106 30.5158C227.89 30.7318 227.707 30.9911 227.566 31.2827H227.48V29.9649H225.395V37.4939H227.631V33.1407C227.631 32.6114 227.75 32.2441 227.987 32.0497C228.225 31.8552 228.592 31.7472 229.1 31.7472C229.64 31.7472 230.007 31.8552 230.213 32.0713C230.407 32.2873 230.515 32.6546 230.515 33.1731V37.5047H232.762V33.1731C232.762 32.6222 232.881 32.2441 233.108 32.0497C233.335 31.8552 233.702 31.7472 234.22 31.7472C234.761 31.7472 235.128 31.8552 235.333 32.0713C235.528 32.2873 235.636 32.6546 235.636 33.1731V37.5047H237.883V32.7302C237.883 32.2009 237.785 31.7148 237.602 31.2719L237.569 31.2503Z" fill="white"></path><path d="M246.222 33.724C246.244 33.5296 246.255 33.3243 246.255 33.1083C246.255 32.4494 246.114 31.8768 245.833 31.38C245.552 30.8831 245.142 30.4942 244.602 30.2241C244.072 29.9433 243.424 29.8029 242.668 29.8029C241.912 29.8029 241.221 29.9649 240.648 30.2781C240.075 30.6022 239.643 31.0559 239.341 31.6392C239.038 32.2333 238.887 32.9246 238.887 33.7348C238.887 34.545 239.017 35.2147 239.287 35.798C239.557 36.3813 239.967 36.835 240.529 37.1483C241.091 37.4723 241.793 37.6235 242.657 37.6235C243.381 37.6235 243.997 37.5263 244.526 37.3211C245.055 37.1266 245.466 36.835 245.758 36.4569C246.049 36.0788 246.19 35.6144 246.19 35.0743V34.923H243.975V35.0094C243.975 35.2363 243.878 35.4091 243.673 35.5063C243.467 35.6144 243.143 35.6684 242.69 35.6684C242.236 35.6684 241.89 35.6036 241.642 35.4847C241.393 35.3659 241.221 35.1715 241.123 34.9122C241.048 34.7178 241.004 34.4801 240.994 34.1885H246.168C246.19 34.0589 246.211 33.8968 246.233 33.6916L246.222 33.724ZM242.592 31.6392C242.949 31.6392 243.251 31.6932 243.478 31.8012C243.716 31.9093 243.878 32.0605 243.986 32.2549C244.072 32.417 244.105 32.6222 244.094 32.8598H240.994C241.037 32.5358 241.145 32.2657 241.307 32.0713C241.534 31.7904 241.966 31.65 242.582 31.65L242.592 31.6392Z" fill="white"></path><path d="M254.54 31.2503C254.346 30.8074 254.043 30.451 253.633 30.1917C253.222 29.9325 252.693 29.8029 252.034 29.8029C251.591 29.8029 251.213 29.8677 250.878 29.9865C250.543 30.1161 250.273 30.2781 250.046 30.505C249.819 30.721 249.636 30.9803 249.495 31.2719H249.409V29.9541H247.324V37.4831H249.56V33.2163C249.56 32.8382 249.614 32.5358 249.722 32.3305C249.83 32.1145 250.003 31.9633 250.219 31.8769C250.435 31.7904 250.738 31.7472 251.094 31.7472C251.667 31.7472 252.055 31.8552 252.261 32.0713C252.466 32.2873 252.574 32.6546 252.574 33.1731V37.5047H254.821V32.7302C254.821 32.2009 254.724 31.7148 254.529 31.2719L254.54 31.2503Z" fill="white"></path><path d="M261.032 31.812V29.9541H258.904V28.2042H257.133L257.003 28.7335C256.83 29.4464 256.193 29.9541 255.458 29.9541V31.812H256.657V35.0203C256.657 35.906 256.895 36.5433 257.381 36.9322C257.856 37.3211 258.591 37.5155 259.563 37.5155C259.833 37.5155 260.103 37.5047 260.363 37.4723C260.622 37.4399 260.849 37.4075 261.032 37.3643V35.4955H260.103C259.628 35.4955 259.304 35.4523 259.142 35.3767C258.98 35.3011 258.904 35.0959 258.904 34.761V31.812H261.032Z" fill="white"></path><path d="M225.449 17.9206C225.146 17.3373 224.714 16.8728 224.142 16.5595C223.58 16.2355 222.889 16.0843 222.078 16.0843C221.268 16.0843 220.577 16.2463 219.994 16.5595C219.41 16.8836 218.967 17.3373 218.665 17.9206C218.362 18.5147 218.211 19.2061 218.211 20.0054C218.211 20.8048 218.362 21.4853 218.665 22.0686C218.967 22.6627 219.41 23.1164 219.994 23.4297C220.577 23.7537 221.268 23.9049 222.078 23.9049C222.889 23.9049 223.569 23.7429 224.142 23.4297C224.704 23.1056 225.136 22.6519 225.449 22.0686C225.751 21.4745 225.903 20.794 225.903 20.0054C225.903 19.2169 225.751 18.5147 225.449 17.9206ZM223.72 21.9282H220.436V18.0502H223.72V19.9622C223.72 19.9622 223.72 19.9838 223.72 19.9946C223.72 20.0054 223.72 20.0162 223.72 20.027V21.9282Z" fill="white"></path><path d="M215.132 31.6392C214.83 31.0559 214.398 30.5914 213.825 30.2781C213.264 29.9541 212.572 29.8029 211.762 29.8029C210.952 29.8029 210.261 29.9649 209.677 30.2781C209.094 30.6022 208.651 31.0559 208.348 31.6392C208.046 32.2333 207.895 32.9246 207.895 33.724C207.895 34.5234 208.046 35.2039 208.348 35.7872C208.651 36.3813 209.094 36.835 209.677 37.1483C210.261 37.4723 210.952 37.6235 211.762 37.6235C212.572 37.6235 213.253 37.4615 213.825 37.1483C214.387 36.8242 214.819 36.3705 215.132 35.7872C215.435 35.1931 215.586 34.5126 215.586 33.724C215.586 32.9355 215.435 32.2333 215.132 31.6392ZM213.404 35.6576H210.12V33.7348C210.12 33.7348 210.12 33.7348 210.12 33.724C210.12 33.7132 210.12 33.724 210.12 33.7132V31.7796H213.404V33.7132C213.404 33.7132 213.404 33.7132 213.404 33.724C213.404 33.7348 213.404 33.724 213.404 33.7348V35.6468V35.6576Z" fill="white"></path><path d="M259.304 17.9206C259.001 17.3373 258.569 16.8728 257.997 16.5595C257.435 16.2355 256.744 16.0843 255.933 16.0843C255.123 16.0843 254.432 16.2463 253.849 16.5595C253.265 16.8836 252.822 17.3373 252.52 17.9206C252.217 18.5147 252.066 19.2061 252.066 20.0054C252.066 20.8048 252.217 21.4853 252.52 22.0686C252.822 22.6627 253.265 23.1164 253.849 23.4297C254.432 23.7537 255.123 23.9049 255.933 23.9049C256.744 23.9049 257.424 23.7429 257.997 23.4297C258.558 23.1056 258.991 22.6519 259.304 22.0686C259.617 21.4853 259.758 20.794 259.758 20.0054C259.758 19.2169 259.606 18.5147 259.304 17.9206ZM257.565 21.9282H254.281V18.0502H257.565V19.5949C257.565 19.7246 257.575 19.8542 257.575 20.0054C257.575 20.1566 257.575 20.2755 257.565 20.4051V21.939V21.9282Z" fill="white"></path><path d="M185.512 17.9206C185.209 17.3373 184.777 16.8728 184.205 16.5595C183.643 16.2355 182.952 16.0843 182.141 16.0843C181.331 16.0843 180.64 16.2463 180.057 16.5595C179.473 16.8836 179.041 17.3373 178.728 17.9206C178.425 18.5147 178.274 19.2061 178.274 20.0054C178.274 20.8048 178.425 21.4853 178.728 22.0686C179.03 22.6627 179.473 23.1164 180.057 23.4297C180.64 23.7537 181.331 23.9049 182.141 23.9049C182.952 23.9049 183.632 23.7429 184.205 23.4297C184.766 23.1056 185.199 22.6519 185.512 22.0686C185.814 21.4745 185.966 20.794 185.966 20.0054C185.966 19.2169 185.814 18.5147 185.512 17.9206ZM183.783 21.9282H180.499V18.0502H183.783V21.9282Z" fill="white"></path></svg>